<svg xmlns="http://www.w3.org/2000/svg" width="152.575" height="35" viewBox="0 0 152.575 35">
  <g id="For_white_background_2_" data-name="For white background (2)" transform="translate(0)">
    <g id="Group_88124" data-name="Group 88124" transform="translate(0 0)">
      <path id="Path_68750" data-name="Path 68750" d="M189.726,180.594a1.488,1.488,0,0,0,1.058.436V167.44a3.069,3.069,0,0,0-2.176.9l-3.853,3.846-.019.019-1.706,1.7,6.694,6.685Z" transform="translate(-175.739 -167.44)" fill="#00d77a"/>
      <path id="Path_68751" data-name="Path 68751" d="M149.184,228.287a3.069,3.069,0,0,0,0,4.346l8.57,8.559a2.1,2.1,0,0,1,.615,1.484v4.7a3.077,3.077,0,0,0,3.078,3.074h1.882V241.1a2.643,2.643,0,0,1-1.874-.774L149.293,228.18" transform="translate(-148.283 -215.45)" fill="#00d77a"/>
      <path id="Path_68752" data-name="Path 68752" d="M156.98,217.226l12.162,12.145a1.488,1.488,0,0,0,1.058.436v-4.226a2.644,2.644,0,0,1-1.874-.774l-9.47-9.457-1.876,1.874Z" transform="translate(-155.155 -205.304)" fill="#00d77a"/>
      <path id="Path_68753" data-name="Path 68753" d="M169.82,204.116l9.47,9.457a1.5,1.5,0,0,0,1.058.439V209.62a2.643,2.643,0,0,1-1.874-.774l-6.694-6.685-1.96,1.956Z" transform="translate(-165.301 -194.879)" fill="#00d77a"/>
      <path id="Path_68754" data-name="Path 68754" d="M228.547,202.16l-6.694,6.685a2.643,2.643,0,0,1-1.874.774v4.392a1.486,1.486,0,0,0,1.058-.439l9.47-9.457Z" transform="translate(-204.936 -194.879)" fill="#005bff"/>
      <path id="Path_68755" data-name="Path 68755" d="M221.03,180.594l6.694-6.685-1.706-1.7-.019-.019-3.853-3.846a3.069,3.069,0,0,0-2.176-.9v13.591a1.488,1.488,0,0,0,1.058-.436Z" transform="translate(-204.928 -167.44)" fill="#005bff"/>
      <path id="Path_68756" data-name="Path 68756" d="M234.016,228.172l-12.162,12.145a2.644,2.644,0,0,1-1.874.774v9.35h1.882a3.077,3.077,0,0,0,3.078-3.074v-4.7a2.093,2.093,0,0,1,.615-1.484l8.57-8.559a3.069,3.069,0,0,0,0-4.346l-.109-.109Z" transform="translate(-204.936 -215.442)" fill="#005bff"/>
      <path id="Path_68757" data-name="Path 68757" d="M231.324,215.36l-9.47,9.457a2.643,2.643,0,0,1-1.874.774v4.226a1.488,1.488,0,0,0,1.058-.436L233.2,217.236l-1.876-1.874Z" transform="translate(-204.936 -205.312)" fill="#005bff"/>
    </g>
    <path id="Path_68758" data-name="Path 68758" d="M331.168,206.741h8.188l1.228-2.791h-12.4l0,19.26h2.986" transform="translate(-290.449 -196.289)" fill="#231f20"/>
    <path id="Path_68759" data-name="Path 68759" d="M830.168,242.3h2.615v10.9h-2.6v-1.062a5.007,5.007,0,0,1-7.29-.183,6.161,6.161,0,0,1-1.509-4.243,5.919,5.919,0,0,1,1.509-4.163,4.883,4.883,0,0,1,3.777-1.666,4.793,4.793,0,0,1,3.513,1.6l-.013-1.177Zm-6.14,5.409a3.836,3.836,0,0,0,.865,2.6,2.84,2.84,0,0,0,2.235,1.016,2.994,2.994,0,0,0,2.327-.98,4.19,4.19,0,0,0,0-5.158,2.949,2.949,0,0,0-2.3-.993,2.883,2.883,0,0,0-2.235,1,3.674,3.674,0,0,0-.888,2.51Z" transform="translate(-680.207 -226.27)" fill="#231f20"/>
    <path id="Path_68760" data-name="Path 68760" d="M518.368,205.94l2.6-2V223.2h-2.6V222.14a4.861,4.861,0,0,1-3.466,1.482,4.959,4.959,0,0,1-3.823-1.665,6.153,6.153,0,0,1-1.509-4.24,5.886,5.886,0,0,1,1.509-4.149,4.881,4.881,0,0,1,7.292-.08V205.94Zm-6.15,11.777a3.832,3.832,0,0,0,.865,2.6,2.841,2.841,0,0,0,2.235,1.015,3,3,0,0,0,2.327-.979,4.185,4.185,0,0,0,0-5.154,2.95,2.95,0,0,0-2.3-.992,2.884,2.884,0,0,0-2.235,1,3.669,3.669,0,0,0-.888,2.508Z" transform="translate(-433.795 -196.281)" fill="#231f20"/>
    <path id="Path_68761" data-name="Path 68761" d="M795.921,241.87v11.318H793.33v-9.329Z" transform="translate(-658.043 -226.262)" fill="#231f20"/>
    <path id="Path_68762" data-name="Path 68762" d="M795.921,216.74v2.707l-2.591,1.989v-2.7Z" transform="translate(-658.043 -206.4)" fill="#005bff"/>
    <path id="Path_68763" data-name="Path 68763" d="M447.81,242.29h2.6v.927a4.281,4.281,0,0,1,3.064-1.347,3.9,3.9,0,0,1,3.053,1.232,4.964,4.964,0,0,1,.944,3.387v6.7h-2.6v-6.094a4.029,4.029,0,0,0-.462-2.27,1.868,1.868,0,0,0-1.635-.638,2.008,2.008,0,0,0-1.832.844,5.769,5.769,0,0,0-.531,2.908v5.248h-2.6v-10.9Z" transform="translate(-384.988 -226.262)" fill="#231f20"/>
    <path id="Path_68764" data-name="Path 68764" d="M732.088,205.948l2.6-2v19.259h-2.6v-1.061a4.861,4.861,0,0,1-3.466,1.482,4.959,4.959,0,0,1-3.823-1.665,6.153,6.153,0,0,1-1.509-4.24,5.886,5.886,0,0,1,1.509-4.149,4.881,4.881,0,0,1,7.292-.08v-7.548Zm-6.15,11.777a3.832,3.832,0,0,0,.865,2.6,2.841,2.841,0,0,0,2.235,1.015,3,3,0,0,0,2.327-.979,4.185,4.185,0,0,0,0-5.154,2.95,2.95,0,0,0-2.3-.992,2.884,2.884,0,0,0-2.235,1,3.669,3.669,0,0,0-.888,2.508Z" transform="translate(-602.7 -196.289)" fill="#231f20"/>
    <path id="Path_68765" data-name="Path 68765" d="M586.889,244.079l-2.142,1.129c-.338-.684-.757-1.026-1.255-1.026a.863.863,0,0,0-.611.235.773.773,0,0,0-.254.6q0,.639,1.5,1.265a8.931,8.931,0,0,1,2.776,1.62,2.757,2.757,0,0,1,.713,2,3.48,3.48,0,0,1-1.2,2.692,4.317,4.317,0,0,1-6.807-1.7l2.212-1.016a4.714,4.714,0,0,0,.7,1.016,1.608,1.608,0,0,0,1.129.434q1.313,0,1.314-1.186,0-.683-1.014-1.278c-.26-.13-.522-.254-.783-.376s-.527-.248-.8-.376a4.877,4.877,0,0,1-1.591-1.1,2.677,2.677,0,0,1-.588-1.79,3.154,3.154,0,0,1,1-2.4,3.531,3.531,0,0,1,2.489-.946,3.4,3.4,0,0,1,3.2,2.2Z" transform="translate(-489.144 -226.27)" fill="#231f20"/>
    <path id="Path_68766" data-name="Path 68766" d="M389.031,243.87v6.266q0,2.76,2.2,2.761t2.2-2.761l-.013-6.266h2.6v6.322a7.1,7.1,0,0,1-.334,2.3,3.861,3.861,0,0,1-1.116,1.563,5.488,5.488,0,0,1-6.669,0,3.926,3.926,0,0,1-1.139-1.563,6.318,6.318,0,0,1-.323-2.3V243.87Z" transform="translate(-336.49 -227.843)" fill="#231f20"/>
    <path id="Path_68767" data-name="Path 68767" d="M633.46,205.948l2.6-2v19.26h-2.6V205.95Z" transform="translate(-531.698 -196.289)" fill="#231f20"/>
    <path id="Path_68768" data-name="Path 68768" d="M342.42,232.272v-7.8h4.715l1.228-2.791H342.42V215.79" transform="translate(-301.702 -205.653)" fill="#231f20"/>
    <path id="Path_68769" data-name="Path 68769" d="M661.53,242.29h2.6v.927a4.281,4.281,0,0,1,3.064-1.347,3.9,3.9,0,0,1,3.053,1.232,4.964,4.964,0,0,1,.944,3.387v6.7h-2.6v-6.094a4.029,4.029,0,0,0-.462-2.27,1.868,1.868,0,0,0-1.635-.638,2.008,2.008,0,0,0-1.832.844,5.77,5.77,0,0,0-.531,2.908v5.248h-2.6v-10.9Z" transform="translate(-553.883 -226.262)" fill="#231f20"/>
  </g>
</svg>
