<svg xmlns="http://www.w3.org/2000/svg" xmlns:xlink="http://www.w3.org/1999/xlink" width="19.724" height="22.6" viewBox="0 0 19.724 22.6">
  <defs>
    <clipPath id="clip-path">
      <rect id="Rectangle_150310" data-name="Rectangle 150310" width="19.724" height="22.6" fill="#0161ff"/>
    </clipPath>
  </defs>
  <g id="Group_95218" data-name="Group 95218" transform="translate(0 0)">
    <g id="Group_95210" data-name="Group 95210" transform="translate(0 0)" clip-path="url(#clip-path)">
      <path id="Path_71674" data-name="Path 71674" d="M19.677,16.951a.373.373,0,0,1-.313.176.368.368,0,0,1-.187-.044l-4.32-2.5.929,3.474a.355.355,0,0,1-.258.44.3.3,0,0,1-.094.01.355.355,0,0,1-.351-.263l-1.116-4.176L10.259,11.93v4.548l3.055,3.055a.365.365,0,1,1-.516.517l-2.539-2.539v4.727a.366.366,0,0,1-.731,0V17.512L6.983,20.051a.329.329,0,0,1-.253.111.35.35,0,0,1-.259-.111.365.365,0,0,1,0-.517l3.055-3.055V11.8l-3.77,2.176-1.115,4.17a.371.371,0,0,1-.351.269A.279.279,0,0,1,4.2,18.4a.365.365,0,0,1-.259-.452l.929-3.462L.549,16.985a.375.375,0,0,1-.187.044.365.365,0,0,1-.181-.681l4.325-2.5-3.473-.924a.374.374,0,0,1-.258-.45.365.365,0,0,1,.445-.257L5.4,13.336l3.648-2.1L5.22,9.029,1.044,10.144a.451.451,0,0,1-.094.011A.361.361,0,0,1,.6,9.885a.37.37,0,0,1,.258-.45L4.33,8.512.241,6.148A.364.364,0,1,1,.6,5.517L4.692,7.874,3.763,4.406a.365.365,0,0,1,.7-.192L5.582,8.39l3.945,2.276V6.391L6.472,3.33a.365.365,0,0,1,0-.517.37.37,0,0,1,.511,0L9.528,5.358V.368a.366.366,0,1,1,.731,0V5.358L12.8,2.813a.376.376,0,0,1,.516,0,.364.364,0,0,1,0,.517L10.259,6.391v4.143l3.885-2.243,1.116-4.176a.364.364,0,0,1,.7.187l-.929,3.474,4.089-2.363a.366.366,0,1,1,.362.637L15.4,8.408l3.474.929a.373.373,0,0,1,.258.45.366.366,0,0,1-.351.263.317.317,0,0,1-.1-.011L14.506,8.918l-4,2.313,3.824,2.209L18.5,12.326a.365.365,0,0,1,.451.252.374.374,0,0,1-.259.451l-3.472.929,4.325,2.489a.378.378,0,0,1,.132.5" transform="translate(0 0)" fill="#0161ff"/>
    </g>
  </g>
</svg>
