<svg xmlns="http://www.w3.org/2000/svg" xmlns:xlink="http://www.w3.org/1999/xlink" width="22.919" height="26.261" viewBox="0 0 22.919 26.261">
  <defs>
    <clipPath id="clip-path">
      <rect id="Rectangle_150310" data-name="Rectangle 150310" width="22.919" height="26.261" fill="#0161ff"/>
    </clipPath>
  </defs>
  <g id="Group_95211" data-name="Group 95211" transform="translate(0 0)">
    <g id="Group_95210" data-name="Group 95210" transform="translate(0 0)" clip-path="url(#clip-path)">
      <path id="Path_71674" data-name="Path 71674" d="M22.864,19.7a.434.434,0,0,1-.364.2.427.427,0,0,1-.217-.051l-5.02-2.9,1.08,4.036a.413.413,0,0,1-.3.511.349.349,0,0,1-.109.012.413.413,0,0,1-.408-.306l-1.3-4.853-4.31-2.488v5.285l3.55,3.55a.424.424,0,0,1-.6.6l-2.95-2.95v5.492a.425.425,0,0,1-.849,0V20.349L8.115,23.3a.382.382,0,0,1-.294.128.406.406,0,0,1-.3-.128.424.424,0,0,1,0-.6l3.55-3.55V13.709l-4.38,2.529-1.3,4.846a.431.431,0,0,1-.408.313.324.324,0,0,1-.109-.012.424.424,0,0,1-.3-.525l1.079-4.022-5.019,2.9a.436.436,0,0,1-.217.051A.424.424,0,0,1,.21,19l5.025-2.9L1.2,15.023A.435.435,0,0,1,.9,14.5a.424.424,0,0,1,.517-.3L6.27,15.5l4.239-2.446L6.065,10.492l-4.852,1.3A.524.524,0,0,1,1.1,11.8.42.42,0,0,1,.7,11.486a.43.43,0,0,1,.3-.522L5.031,9.891.28,7.144A.423.423,0,1,1,.7,6.411l4.75,2.738L4.373,5.12A.424.424,0,0,1,5.191,4.9l1.3,4.852,4.584,2.645V7.426L7.521,3.869a.424.424,0,0,1,0-.6.43.43,0,0,1,.594,0l2.956,2.958V.427a.425.425,0,1,1,.849,0v5.8l2.95-2.958a.437.437,0,0,1,.6,0,.423.423,0,0,1,0,.6L11.92,7.426V12.24l4.514-2.606,1.3-4.853A.423.423,0,0,1,18.548,5l-1.08,4.036L22.22,6.289a.425.425,0,1,1,.42.74L17.89,9.77l4.036,1.079a.433.433,0,0,1,.3.523.425.425,0,0,1-.408.306.369.369,0,0,1-.116-.012l-4.847-1.3-4.647,2.688,4.443,2.567,4.847-1.3a.425.425,0,0,1,.524.293.434.434,0,0,1-.3.524l-4.035,1.079,5.025,2.892a.439.439,0,0,1,.153.586" transform="translate(0 0)" fill="#0161ff"/>
    </g>
  </g>
</svg>
