<svg xmlns="http://www.w3.org/2000/svg" xmlns:xlink="http://www.w3.org/1999/xlink" width="31.064" height="35.593" viewBox="0 0 31.064 35.593">
  <defs>
    <clipPath id="clip-path">
      <rect id="Rectangle_150310" data-name="Rectangle 150310" width="31.064" height="35.593" fill="#0161ff"/>
    </clipPath>
  </defs>
  <g id="Group_95220" data-name="Group 95220" transform="translate(0 0)">
    <g id="Group_95210" data-name="Group 95210" transform="translate(0 0)" clip-path="url(#clip-path)">
      <path id="Path_71674" data-name="Path 71674" d="M30.989,26.7a.588.588,0,0,1-.493.278.579.579,0,0,1-.294-.069l-6.8-3.93,1.464,5.471a.56.56,0,0,1-.406.692.474.474,0,0,1-.148.016.559.559,0,0,1-.553-.415L22,22.162l-5.841-3.373v7.163l4.811,4.812a.575.575,0,1,1-.813.814l-4-4v7.444a.576.576,0,0,1-1.151,0V27.58l-4.007,4a.518.518,0,0,1-.4.174.551.551,0,0,1-.407-.174.575.575,0,0,1,0-.814L15,25.952V18.58L9.068,22.008,7.312,28.576A.584.584,0,0,1,6.759,29a.439.439,0,0,1-.148-.017.575.575,0,0,1-.407-.711L7.667,22.82l-6.8,3.929a.591.591,0,0,1-.294.07.575.575,0,0,1-.285-1.072L7.1,21.817,1.626,20.361a.589.589,0,0,1-.406-.709.574.574,0,0,1,.7-.405L8.5,21l5.746-3.315L8.221,14.22,1.644,15.976a.71.71,0,0,1-.148.017.569.569,0,0,1-.553-.425.583.583,0,0,1,.406-.708l5.469-1.453L.379,9.683a.573.573,0,1,1,.572-.994L7.389,12.4,5.926,6.939a.575.575,0,0,1,1.109-.3l1.756,6.576L15,16.8V10.065L10.193,5.244a.575.575,0,0,1,0-.814.583.583,0,0,1,.805,0L15,8.439V.579a.576.576,0,1,1,1.151,0v7.86l4-4.009a.592.592,0,0,1,.813,0,.573.573,0,0,1,0,.814l-4.811,4.822V16.59l6.118-3.532L24.032,6.48a.573.573,0,0,1,1.107.294l-1.464,5.471,6.44-3.721a.577.577,0,1,1,.57,1l-6.438,3.715L29.717,14.7a.587.587,0,0,1,.406.709.576.576,0,0,1-.553.415.5.5,0,0,1-.157-.017l-6.569-1.765-6.3,3.643,6.022,3.479,6.569-1.756a.575.575,0,0,1,.71.4.589.589,0,0,1-.408.71L23.97,21.981l6.811,3.92a.6.6,0,0,1,.208.795" transform="translate(0 0)" fill="#0161ff"/>
    </g>
  </g>
</svg>
