<svg xmlns="http://www.w3.org/2000/svg" xmlns:xlink="http://www.w3.org/1999/xlink" width="138" height="137" viewBox="0 0 138 137">
  <defs>
    <filter id="Ellipse_1249" x="0" y="0" width="138" height="137" filterUnits="userSpaceOnUse">
      <feOffset dy="3" input="SourceAlpha"/>
      <feGaussianBlur stdDeviation="2.5" result="blur"/>
      <feFlood flood-opacity="0.161"/>
      <feComposite operator="in" in2="blur"/>
      <feComposite in="SourceGraphic"/>
    </filter>
  </defs>
  <g id="tick" transform="translate(7.61 4.167)">
    <g transform="matrix(1, 0, 0, 1, -7.61, -4.17)" filter="url(#Ellipse_1249)">
      <ellipse id="Ellipse_1249-2" data-name="Ellipse 1249" cx="61.5" cy="61" rx="61.5" ry="61" transform="translate(7.5 4.5)" fill="#42b093"/>
    </g>
    <path id="Path_3743" data-name="Path 3743" d="M306.14,131.876a61.172,61.172,0,0,0-7.235-14.954l-53.734,55.967.108,6.228,2.537-.016,58.324-47.226Z" transform="translate(-186.216 -90.249)" fill="#37a18e"/>
    <path id="Path_3744" data-name="Path 3744" d="M196.736,65.5,185.789,54.689a3.859,3.859,0,0,0-5.412,0l-46.792,48.2L113.406,82.949a3.861,3.861,0,0,0-5.413,0l-9.7,9.587a3.748,3.748,0,0,0,0,5.345l32.386,32a5.216,5.216,0,0,0,6.316,0l59.744-59.027a3.749,3.749,0,0,0,0-5.347Z" transform="translate(-73.705 -42.097)" fill="#f8f8f8"/>
    <path id="Path_3745" data-name="Path 3745" d="M137,162.079l59.744-59.027a3.749,3.749,0,0,0,0-5.347l-1.786-1.766L133.5,156.388,99.651,123.4,98.3,124.737a3.748,3.748,0,0,0,0,5.345l32.385,32a5.216,5.216,0,0,0,6.316,0Z" transform="translate(-73.708 -74.298)" fill="#ebebeb"/>
  </g>
</svg>
